<?xml version="1.0" encoding="UTF-8"?>
<svg version="1.1" xmlns="http://www.w3.org/2000/svg" width="48" height="48">
<path d="M0 0 C1.20462891 -0.02126953 1.20462891 -0.02126953 2.43359375 -0.04296875 C4.5625 0.1875 4.5625 0.1875 6.5625 2.1875 C6.5625 3.5075 6.5625 4.8275 6.5625 6.1875 C8.5425 6.1875 10.5225 6.1875 12.5625 6.1875 C12.8925 7.1775 13.2225 8.1675 13.5625 9.1875 C14.8 9.868125 14.8 9.868125 16.0625 10.5625 C18.5625 12.1875 18.5625 12.1875 19.375 14.875 C19.436875 15.638125 19.49875 16.40125 19.5625 17.1875 C21.8725 17.1875 24.1825 17.1875 26.5625 17.1875 C27.2386872 21.04005857 27.90173092 24.89476957 28.5625 28.75 C28.75328125 29.83603516 28.9440625 30.92207031 29.140625 32.04101562 C29.32109375 33.10126953 29.5015625 34.16152344 29.6875 35.25390625 C29.93886719 36.7071228 29.93886719 36.7071228 30.1953125 38.18969727 C30.5625 41.1875 30.5625 41.1875 30.5625 48.1875 C14.7225 48.1875 -1.1175 48.1875 -17.4375 48.1875 C-17.4375 37.04903846 -17.4375 37.04903846 -16.5625 32.25 C-15.11175266 23.60769085 -14.30269322 14.90386147 -13.4375 6.1875 C-11.1275 6.1875 -8.8175 6.1875 -6.4375 6.1875 C-6.293125 5.383125 -6.14875 4.57875 -6 3.75 C-5.09716092 -0.36293359 -3.94130144 0.03153041 0 0 Z M-2.4375 2.1875 C-3.0975 3.5075 -3.7575 4.8275 -4.4375 6.1875 C-1.7975 6.1875 0.8425 6.1875 3.5625 6.1875 C3.5625 5.1975 3.5625 4.2075 3.5625 3.1875 C0.5925 2.6925 0.5925 2.6925 -2.4375 2.1875 Z M13.5625 12.1875 C13.8925 13.8375 14.2225 15.4875 14.5625 17.1875 C15.5525 17.1875 16.5425 17.1875 17.5625 17.1875 C16.2535428 14.06552522 16.2535428 14.06552522 13.5625 12.1875 Z " fill="#EE927D" transform="translate(17.4375,-0.1875)"/>
<path d="M0 0 C1.20462891 -0.02126953 1.20462891 -0.02126953 2.43359375 -0.04296875 C4.5625 0.1875 4.5625 0.1875 6.5625 2.1875 C6.5625 3.5075 6.5625 4.8275 6.5625 6.1875 C8.5425 6.1875 10.5225 6.1875 12.5625 6.1875 C12.8925 7.1775 13.2225 8.1675 13.5625 9.1875 C16.02576712 10.8321674 16.02576712 10.8321674 18.5625 12.1875 C19.5625 13.1875 19.5625 13.1875 19.66015625 15.25390625 C19.64855469 16.07761719 19.63695312 16.90132812 19.625 17.75 C19.61597656 18.57628906 19.60695312 19.40257813 19.59765625 20.25390625 C19.58605469 20.89199219 19.57445312 21.53007812 19.5625 22.1875 C19.2325 22.1875 18.9025 22.1875 18.5625 22.1875 C18.27375 21.07375 17.985 19.96 17.6875 18.8125 C16.87008671 15.18458908 16.87008671 15.18458908 14.5625 13.1875 C11.95969432 13.50791397 11.95969432 13.50791397 9.5625 14.1875 C9.2325 16.8275 8.9025 19.4675 8.5625 22.1875 C7.9025 22.1875 7.2425 22.1875 6.5625 22.1875 C6.5625 20.5375 6.5625 18.8875 6.5625 17.1875 C4.5825 17.1875 2.6025 17.1875 0.5625 17.1875 C0.50843994 17.78030762 0.45437988 18.37311523 0.39868164 18.98388672 C-0.21694393 25.45772199 -1.05577513 31.87912101 -2 38.3125 C-2.13857422 39.26898438 -2.27714844 40.22546875 -2.41992188 41.2109375 C-2.75716354 43.53674207 -3.09705009 45.86216288 -3.4375 48.1875 C-8.0575 48.1875 -12.6775 48.1875 -17.4375 48.1875 C-17.63499989 41.57125361 -17.1100461 35.51181032 -16.015625 28.9921875 C-14.86617845 21.42758657 -14.19311372 13.79990627 -13.4375 6.1875 C-11.1275 6.1875 -8.8175 6.1875 -6.4375 6.1875 C-6.293125 5.383125 -6.14875 4.57875 -6 3.75 C-5.09716092 -0.36293359 -3.94130144 0.03153041 0 0 Z M-2.4375 2.1875 C-3.0975 3.5075 -3.7575 4.8275 -4.4375 6.1875 C-1.7975 6.1875 0.8425 6.1875 3.5625 6.1875 C3.5625 5.1975 3.5625 4.2075 3.5625 3.1875 C0.5925 2.6925 0.5925 2.6925 -2.4375 2.1875 Z " fill="#D94E64" transform="translate(17.4375,-0.1875)"/>
<path d="M0 0 C2.44961764 3.8583721 2.63627458 8.04861284 3.0703125 12.484375 C3.15626678 13.29996887 3.24222107 14.11556274 3.33078003 14.95587158 C3.60282095 17.5532169 3.86404664 20.15151965 4.125 22.75 C4.30788099 24.51439694 4.49146663 26.278721 4.67578125 28.04296875 C5.12535934 32.36117695 5.56524308 36.68027548 6 41 C4.68 40.01 3.36 39.02 2 38 C1.38125 38.309375 0.7625 38.61875 0.125 38.9375 C-1.25 39.625 -2.625 40.3125 -4 41 C-4.21212473 34.74232056 -3.60501916 29.00854368 -2.578125 22.83984375 C-1.43720904 15.26200326 -0.75678874 7.62424406 0 0 Z " fill="#D8475F" transform="translate(4,6)"/>
<path d="M0 0 C1.98 0 3.96 0 6 0 C6 0.33 6 0.66 6 1 C4.35 1 2.7 1 1 1 C1.09087891 1.56396484 1.18175781 2.12792969 1.27539062 2.70898438 C1.68998991 5.30501374 2.0950448 7.9024495 2.5 10.5 C2.64308594 11.386875 2.78617188 12.27375 2.93359375 13.1875 C3.75865611 18.53076099 4.15157107 23.59396514 4 29 C3.236875 28.814375 2.47375 28.62875 1.6875 28.4375 C-1.08967375 27.77180827 -1.08967375 27.77180827 -4 29 C-3.41115167 23.40594083 -2.73518934 17.82666349 -2 12.25 C-1.835 10.99703125 -1.67 9.7440625 -1.5 8.453125 C-1.08782936 5.60657153 -0.60093902 2.81153611 0 0 Z " fill="#EA7F6C" transform="translate(18,17)"/>
<path d="M0 0 C0.33 0 0.66 0 1 0 C1.50763865 2.68625454 2.00627197 5.37368383 2.5 8.0625 C2.64308594 8.81466797 2.78617188 9.56683594 2.93359375 10.34179688 C3.13662109 11.45844727 3.13662109 11.45844727 3.34375 12.59765625 C3.46943359 13.27320557 3.59511719 13.94875488 3.72460938 14.64477539 C4.08692673 17.74342389 4 20.88024097 4 24 C-7.22 24 -18.44 24 -30 24 C-30 23.34 -30 22.68 -30 22 C-27 20 -27 20 -24.875 20.3125 C-23 21 -23 21 -22 22 C-21.34 21.01 -20.68 20.02 -20 19 C-20 19.99 -20 20.98 -20 22 C-12.74 22 -5.48 22 2 22 C0.97797013 16.62849308 0.97797013 16.62849308 -0.06469727 11.26098633 C-0.80545709 7.22209301 -1.21758306 4.02366852 0 0 Z " fill="#F2AA9B" transform="translate(44,24)"/>
<path d="M0 0 C2.44961764 3.8583721 2.63627458 8.04861284 3.0703125 12.484375 C3.15626678 13.29996887 3.24222107 14.11556274 3.33078003 14.95587158 C3.60282095 17.5532169 3.86404664 20.15151965 4.125 22.75 C4.30788099 24.51439694 4.49146663 26.278721 4.67578125 28.04296875 C5.12535934 32.36117695 5.56524308 36.68027548 6 41 C3.53051758 39.43457031 3.53051758 39.43457031 1 37 C0.43237305 33.79199219 0.43237305 33.79199219 0.51171875 30.046875 C0.51879349 29.38665344 0.52586823 28.72643188 0.53315735 28.04620361 C0.56105273 25.94629508 0.62376713 23.84909621 0.6875 21.75 C0.71258983 20.3229553 0.73540183 18.89586862 0.75585938 17.46875 C0.8108588 13.97829252 0.89709088 10.48941089 1 7 C0.34 6.67 -0.32 6.34 -1 6 C-0.67 4.02 -0.34 2.04 0 0 Z " fill="#C53049" transform="translate(4,6)"/>
<path d="M0 0 C0.33 0 0.66 0 1 0 C2.20443195 7.05453001 3.28100502 13.83437211 3 21 C3.99 21.33 4.98 21.66 6 22 C1.38 22 -3.24 22 -8 22 C-6.68 20.35 -5.36 18.7 -4 17 C-3.360625 17.33 -2.72125 17.66 -2.0625 18 C-0.23205433 19.07271225 -0.23205433 19.07271225 1 19 C0.835 17.906875 0.67 16.81375 0.5 15.6875 C-0.16622112 10.46094841 -0.08701543 5.2595992 0 0 Z " fill="#DD6479" transform="translate(8,26)"/>
<path d="M0 0 C3.2538378 0.55384473 3.9982343 0.92762109 5.9375 3.5 C6.23046875 5.76171875 6.23046875 5.76171875 6.125 8.1875 C6.09792969 8.99574219 6.07085937 9.80398437 6.04296875 10.63671875 C6.00816406 11.25160156 5.97335938 11.86648437 5.9375 12.5 C5.6075 12.5 5.2775 12.5 4.9375 12.5 C4.64875 11.38625 4.36 10.2725 4.0625 9.125 C3.24508671 5.49708908 3.24508671 5.49708908 0.9375 3.5 C-1.66530568 3.82041397 -1.66530568 3.82041397 -4.0625 4.5 C-4.3925 7.14 -4.7225 9.78 -5.0625 12.5 C-5.7225 12.5 -6.3825 12.5 -7.0625 12.5 C-7.37640173 8.497753 -7.40366018 6.11671263 -5.4375 2.5625 C-3.0625 0.5 -3.0625 0.5 0 0 Z " fill="#5A6C44" transform="translate(31.0625,9.5)"/>
<path d="M0 0 C2.09375 -0.36328125 2.09375 -0.36328125 4.5 -0.3125 C5.69109375 -0.30669922 5.69109375 -0.30669922 6.90625 -0.30078125 C9 0 9 0 11 2 C11.125 4.625 11.125 4.625 11 7 C10.34 7 9.68 7 9 7 C8.67 5.68 8.34 4.36 8 3 C6.02 3 4.04 3 2 3 C1.01 5.97 0.02 8.94 -1 12 C-1.33 12 -1.66 12 -2 12 C-2.05422947 10.5629191 -2.09289723 9.12524538 -2.125 7.6875 C-2.14820313 6.88699219 -2.17140625 6.08648437 -2.1953125 5.26171875 C-2 3 -2 3 0 0 Z " fill="#FDC65B" transform="translate(13,0)"/>
<path d="M0 0 C1.875 0.6875 1.875 0.6875 2.875 1.6875 C4.72674706 1.84536308 6.5840911 1.93857356 8.44140625 2.00390625 C10.1284668 2.06674805 10.1284668 2.06674805 11.84960938 2.13085938 C13.62561523 2.18983398 13.62561523 2.18983398 15.4375 2.25 C16.62537109 2.29318359 17.81324219 2.33636719 19.03710938 2.38085938 C21.98294784 2.48733546 24.9288743 2.58934841 27.875 2.6875 C28.205 2.0275 28.535 1.3675 28.875 0.6875 C28.875 1.6775 28.875 2.6675 28.875 3.6875 C17.655 3.6875 6.435 3.6875 -5.125 3.6875 C-5.125 3.0275 -5.125 2.3675 -5.125 1.6875 C-2.125 -0.3125 -2.125 -0.3125 0 0 Z " fill="#F4B3A5" transform="translate(19.125,44.3125)"/>
<path d="M0 0 C0.33 0 0.66 0 1 0 C1.33 3.63 1.66 7.26 2 11 C0.35 11.66 -1.3 12.32 -3 13 C-2.88490339 11.58249437 -2.75746342 10.16598831 -2.625 8.75 C-2.55539062 7.96109375 -2.48578125 7.1721875 -2.4140625 6.359375 C-1.98492887 3.914123 -1.21399362 2.15163097 0 0 Z " fill="#EE907C" transform="translate(17,33)"/>
<path d="M0 0 C3.51769206 5.27653809 3.10579441 10.86392402 3 17 C2.01 16.34 1.02 15.68 0 15 C-0.22137393 12.37302936 -0.28162025 9.99106036 -0.1875 7.375 C-0.17396484 6.66859375 -0.16042969 5.9621875 -0.14648438 5.234375 C-0.1111104 3.48925872 -0.05730221 1.74453392 0 0 Z " fill="#E96F53" transform="translate(19,29)"/>
<path d="M0 0 C0.99 0 1.98 0 3 0 C3.33 1.65 3.66 3.3 4 5 C2.02 5 0.04 5 -2 5 C-1.125 1.125 -1.125 1.125 0 0 Z " fill="#DA5167" transform="translate(28,12)"/>
<path d="M0 0 C1.98 0 3.96 0 6 0 C6 0.66 6 1.32 6 2 C4.68 2 3.36 2 2 2 C2 4.64 2 7.28 2 10 C1.67 10 1.34 10 1 10 C0.67 6.7 0.34 3.4 0 0 Z " fill="#DE687C" transform="translate(5,6)"/>
<path d="M0 0 C2.31 0 4.62 0 7 0 C7 1.98 7 3.96 7 6 C6.34 5.01 5.68 4.02 5 3 C2.43717258 2.27034634 2.43717258 2.27034634 0 2 C0 1.34 0 0.68 0 0 Z " fill="#F3B0A0" transform="translate(37,17)"/>
</svg>
